<svg xmlns="http://www.w3.org/2000/svg" width="164" height="46" fill="none"><path d="M3.85478 8.38013C55.3546-2.79338 108.645-2.79338 160.145 8.38013c1.085.2107 2.063.79308 2.767 1.64727.703.8541 1.088 1.9268 1.088 3.0341v19.877c0 1.1073-.385 2.18-1.088 3.0341-.704.8542-1.682 1.4366-2.767 1.6473C134.471 43.2058 108.273 46.0153 82 46c-26.2556.0173-52.4372-2.788-78.09524-8.3676-1.09481-.2042-2.08409-.7849-2.79701-1.6419C.394832 35.1335.00302929 34.0541 0 32.9385v-19.877c.0013053-1.1069.386463-2.179 1.0896-3.033.70314-.85387 1.68059-1.43656 2.76518-1.64837z" fill="#164194"/><path d="M82.0001 1.15144c26.2029-.01612 52.3329 2.78496 77.9389 8.3551.825.16073 1.568.60286 2.103 1.25106.536.6483.83 1.4624.834 2.3038v19.877c-.001.842-.295 1.6574-.831 2.3061-.536.6487-1.28 1.0902-2.106 1.2487-25.606 5.5702-51.736 8.3712-77.9389 8.3551-26.1736.0148-52.2734-2.782-77.85159-8.3426-.83693-.1504-1.59494-.5895-2.14265-1.241-.54772-.6516-.85061-1.4746-.8562-2.3263v-19.877c.00332-.8414.2978-1.6555.83324-2.3038.53544-.6482 1.27871-1.09033 2.10314-1.25106C29.6844 3.93851 55.8052 1.13745 82.0001 1.15144z" fill="#fff"/><path d="M159.558 11.2652c.413.0857.785.3084 1.056.6321s.425.7294.437 1.1516v19.8895c-.012.4223-.166.828-.437 1.1517-.271.3236-.643.5463-1.056.632-25.481 5.545-51.483 8.3355-77.5581 8.3238-26.052.0128-52.0303-2.7736-77.48916-8.3113-.42643-.0735-.81433-.2925-1.09788-.6199-.28356-.3274-.4453-.743-.45778-1.1763v-19.877c.00953-.4244.16235-.833.43353-1.1592.27118-.3262.64471-.5508 1.05965-.637C55.5589.17526 108.447.17526 159.558 11.2652z" fill="#164194"/><path d="M58.3464 32.5442v-1.8775c.0131-.0894.0405-.176.0812-.2566h-.0937c-.0643.138-.1373.2718-.2187.4005-.5448.6882-1.2472 1.2347-2.0476 1.5931-.8005.3584-1.6754.5183-2.5506.466-1.1.0184-2.1925-.1842-3.2129-.5961-1.0204-.4118-1.948-1.0245-2.728-1.8017-.7799-.7772-1.3964-1.7032-1.8128-2.7232-.4165-1.0201-.6246-2.1134-.6119-3.2154v-8.0797h3.6424v7.6604c-.0409.6544.0524 1.3102.2743 1.9271.2218.6168.5674 1.1816 1.0155 1.6595.4482.4779.9893.8587 1.59 1.1191.6007.2603 1.2482.3947 1.9027.3947.6546 0 1.3021-.1344 1.9028-.3947.6007-.2604 1.1418-.6412 1.5899-1.1191.4482-.4779.7938-1.0427 1.0156-1.6595.2219-.6169.3152-1.2727.2743-1.9271v-7.6604h3.6674v16.0906h-3.6799zM106.16 24.1765c-.002-1.7206.507-3.4028 1.461-4.8334.955-1.4305 2.312-2.545 3.899-3.2019 1.587-.657 3.334-.827 5.018-.4884 1.684.3386 3.23 1.1706 4.441 2.3903l-2.58 2.6098c-.7-.6987-1.591-1.1742-2.56-1.3662-.969-.192-1.973-.092-2.885.2874-.913.3793-1.693 1.0211-2.241 1.8441-.549.8231-.842 1.7905-.842 2.7802 0 .9896.293 1.9571.842 2.7801.548.8231 1.328 1.4648 2.241 1.8442.912.3793 1.916.4793 2.885.2873.969-.192 1.86-.6674 2.56-1.3662l2.586 2.5785c-1.211 1.2203-2.756 2.053-4.44 2.3928-1.684.3397-3.431.1712-5.019-.4842-1.588-.6555-2.947-1.7684-3.903-3.1977-.957-1.4294-1.468-3.111-1.47-4.8317M34.4682 9.73828h7.4534v3.78642H34.312c-3.7486.219-5.6603 1.5583-7.5784 3.2168v-4.4623c1.8743-1.3831 4.2984-2.32187 7.7346-2.54092z" fill="#fff"/><path fill-rule="evenodd" clip-rule="evenodd" d="M91.3651 24.1765c.0062.9889.3046 1.9538.8575 2.7731.5529.8192 1.3357 1.4561 2.2495 1.8302.9138.3742 1.9177.4689 2.8852.2722.9675-.1967 1.8551-.676 2.551-1.3775.6957-.7014 1.1687-1.5936 1.3587-2.564.191-.9703.09-1.9754-.289-2.8885-.379-.913-1.02-1.6931-1.8413-2.2419-.8212-.5488-1.7863-.8417-2.7735-.8417-.659 0-1.3115.1305-1.9199.3841-.6084.2536-1.1608.6252-1.6253 1.0934-.4646.4683-.8321 1.0239-1.0814 1.635-.2493.611-.3756 1.2655-.3715 1.9256zm-5.148-1.7837h1.6931c.4526-2.0971 1.6634-3.9526 3.3995-5.2092 1.7361-1.2566 3.8748-1.8257 6.0046-1.5977 2.1297.2279 4.0997 1.2369 5.5317 2.8326 1.432 1.5958 2.224 3.6656 2.224 5.8112 0 2.1456-.792 4.2154-2.224 5.8112-1.432 1.5957-3.402 2.6047-5.5317 2.8327-2.1298.2279-4.2685-.3412-6.0046-1.5978-1.7361-1.2566-2.9469-3.1121-3.3995-5.2092h-1.6931v6.4775H82.531V16.4535h3.6861v5.9393zM26.24 24.1764c0-1.7204.5096-3.4021 1.4642-4.8322.9547-1.4301 2.3115-2.5443 3.8986-3.2015 1.5872-.6572 3.3333-.8279 5.0173-.4904 1.6841.3374 3.2303 1.1679 4.4429 2.3861 1.2126 1.2183 2.0372 2.7696 2.3692 4.4575.332 1.6879.1566 3.4366-.5041 5.0246-.6606 1.588-1.7768 2.9439-3.2072 3.8961-1.4303.9522-3.1106 1.4578-4.828 1.4529-2.2972-.0066-4.498-.9254-6.12-2.555-1.6221-1.6295-2.5329-3.8369-2.5329-6.1381zm3.6923.0376c0-.9903.2932-1.9583.8424-2.7817.5492-.8233 1.3298-1.4651 2.243-1.844.9133-.379 1.9183-.4781 2.8878-.2849.9695.1932 1.8601.67 2.5591 1.3702.699.7002 1.175 1.5924 1.3679 2.5636.1928.9712.0939 1.9779-.2844 2.8928-.3783.9149-1.0189 1.6968-1.8409 2.247-.8219.5501-1.7882.8438-2.7768.8438-.6584.0033-1.3111-.1238-1.9203-.3739-.6093-.2502-1.1633-.6184-1.63-1.0837-.4668-.4653-.8372-1.0183-1.0899-1.6274-.2528-.6091-.3829-1.2622-.3829-1.9218h.025z" fill="#fff"/><path d="M134.124 32.5441v-1.815c-.007-.1001.008-.2004.044-.2941h-.094c-.912 1.5208-3.368 2.4345-4.967 2.4345-1.705-.0008-3.371-.5045-4.791-1.4481-1.421-.9435-2.533-2.2853-3.197-3.8578-.664-1.5724-.851-3.306-.538-4.9843.313-1.6784 1.113-3.2272 2.299-4.4532s2.707-2.0749 4.372-2.4408c1.665-.3658 3.4-.2325 4.99.3834 1.589.616 2.963 1.6872 3.949 3.0801.985 1.3929 1.54 3.0457 1.594 4.7523v8.643h-3.661zm-.031-8.3301c0-.9902-.294-1.9583-.843-2.7816-.549-.8234-1.33-1.4651-2.243-1.8441-.913-.3789-1.918-.4781-2.888-.2849-.969.1932-1.86.6701-2.559 1.3703-.699.7002-1.175 1.5923-1.368 2.5635-.192.9713-.093 1.978.285 2.8928.378.9149 1.019 1.6969 1.841 2.247.822.5502 1.788.8438 2.776.8438 1.326 0 2.597-.5275 3.535-1.4664.937-.939 1.464-2.2125 1.464-3.5404zM67.4742 37.9013v-7.2348c-.0018-.1016-.0165-.2026-.0437-.3004h.0437c.9871 1.4958 3.3675 2.4345 4.9606 2.4345 1.7069.0055 3.3774-.4934 4.8027-1.4343 1.4252-.9408 2.5418-2.2818 3.2101-3.8551.6683-1.5734.8585-3.3092.547-4.9903-.3116-1.6811-1.1111-3.2329-2.2986-4.4611-1.1874-1.2282-2.7101-2.0784-4.3775-2.4441-1.6674-.3657-3.4054-.2307-4.9966.3881-1.5911.6188-2.9648 1.6938-3.9491 3.0907-.9843 1.3969-1.5356 3.0536-1.5847 4.7627v14.0379h3.6861v.0062zm0-13.7311c.0062-.9889.3045-1.9539.8575-2.7731.5529-.8192 1.3356-1.4561 2.2494-1.8303.9138-.3741 1.9178-.4688 2.8853-.2721.9674.1967 1.8551.676 2.551 1.3775.6958.7014 1.1688 1.5936 1.3591 2.5639.1903.9704.0896 1.9755-.2896 2.8885-.3792.9131-1.0199 1.6932-1.8411 2.242-.8212.5488-1.7863.8416-2.7735.8416-.659.0001-1.3115-.1305-1.92-.384-.6084-.2536-1.1608-.6252-1.6253-1.0935-.4645-.4682-.832-1.0238-1.0814-1.6349-.2493-.6111-.3755-1.2655-.3714-1.9256z" fill="#fff"/></svg>